<svg version="1.1" id="Layer_1" xmlns="http://www.w3.org/2000/svg" xmlns:xlink="http://www.w3.org/1999/xlink" x="0px" y="0px"
	 width="100%" viewBox="0 0 500 500" enable-background="new 0 0 500 500" xml:space="preserve">
<path fill="#8FD2D5" opacity="1.000000" stroke="none" 
	d="
M1.000002,255.000000 
	C1.000000,252.629440 1.000000,250.258896 1.251190,247.781601 
	C2.321570,246.879196 3.366613,246.216431 3.925096,245.267349 
	C9.671910,235.501160 15.320778,225.677444 21.033607,215.891159 
	C38.355450,186.218231 55.684803,156.549637 73.027962,126.889153 
	C88.407928,100.586128 103.810265,74.296188 119.362671,47.844654 
	C119.715523,47.458035 119.866409,47.202419 119.981941,46.954628 
	C119.988625,46.987259 119.922211,46.982109 120.134415,46.837296 
	C120.554932,46.423256 120.763260,46.154022 120.996635,45.657501 
	C121.021690,45.430210 121.191055,45.005390 121.353218,44.847725 
	C121.710251,44.455650 121.861214,44.195740 121.976395,43.943489 
	C121.984512,43.976650 121.917648,43.962833 122.261971,43.867252 
	C123.059914,42.498447 123.513535,41.225224 123.984688,39.974121 
	C124.002220,39.996246 123.953506,39.968330 124.290421,39.963623 
	C127.994698,39.306267 131.361359,38.088108 134.729553,38.083797 
	C215.426254,37.980446 296.123108,38.007141 376.971893,38.330658 
	C382.532257,47.707054 388.026245,56.713234 393.330719,65.829689 
	C403.376526,83.094757 413.241089,100.465431 423.314667,117.714127 
	C435.188019,138.044495 447.238342,158.271393 459.147491,178.580963 
	C472.134979,200.729538 485.031891,222.931259 498.054016,245.059357 
	C498.589386,245.969070 499.998138,246.364807 501.000000,247.000000 
	C501.000000,249.370560 501.000000,251.741104 500.748535,254.219238 
	C499.679779,255.124451 498.639557,255.790268 498.078339,256.739349 
	C488.021484,273.747498 477.939026,290.741486 468.029877,307.835815 
	C450.964569,337.275208 434.122864,366.844666 416.981934,396.239746 
	C403.759460,418.914948 390.222321,441.406616 376.367462,463.985229 
	C292.328430,463.983551 208.746979,463.976562 125.009117,463.651306 
	C124.297348,462.723267 123.608482,462.190491 123.206100,461.492584 
	C112.114540,442.253510 101.135490,422.949097 89.964180,403.756592 
	C75.377739,378.696808 60.626606,353.732941 45.976681,328.710022 
	C31.959642,304.768158 17.996767,280.794495 3.926368,256.884094 
	C3.400949,255.991211 1.995404,255.616287 1.000002,255.000000 
M327.680328,364.922699 
	C328.297363,364.327911 328.914398,363.733154 330.086548,363.007660 
	C330.723175,362.334778 331.359772,361.661896 332.593842,360.683899 
	C334.634094,357.890900 336.674316,355.097870 339.196838,351.884125 
	C340.813538,345.916779 342.430237,339.949402 344.242676,333.067993 
	C344.198425,328.058197 344.154205,323.048431 344.355865,317.317963 
	C344.418915,315.483917 344.481995,313.649872 345.469879,311.905762 
	C347.314117,311.826111 349.158386,311.746460 351.894165,311.890839 
	C355.256348,311.827240 358.618530,311.763641 362.765869,311.927246 
	C371.275543,311.243164 373.818817,308.598572 373.865936,300.273956 
	C373.887207,296.510834 373.801849,292.747101 373.934723,288.062378 
	C373.850128,280.711761 373.765564,273.361115 373.887604,265.194489 
	C373.826874,263.799622 373.766144,262.404755 373.912537,260.206665 
	C373.691010,258.100830 373.469513,255.995010 373.270111,253.225891 
	C372.841858,252.483948 372.413635,251.741989 371.906769,250.517181 
	C371.736938,250.213455 371.482697,250.021530 370.959869,249.349442 
	C370.308350,248.894547 369.656860,248.439667 368.465271,247.431931 
	C360.986908,247.192154 353.508514,246.952377 345.399475,246.371201 
	C344.951447,246.204330 344.503418,246.037460 344.101898,245.144455 
	C343.961639,244.439026 343.821411,243.733612 343.752838,242.310181 
	C343.068115,240.129791 342.383362,237.949402 341.618134,235.069321 
	C341.100433,234.040192 340.582733,233.011063 340.032074,231.394012 
	C339.683319,230.941498 339.334564,230.488968 338.832489,229.370575 
	C337.244537,227.237427 335.656555,225.104263 333.891724,222.355072 
	C332.957031,221.498856 332.022308,220.642654 330.827759,219.232361 
	C329.663696,218.441208 328.499634,217.650040 327.040344,216.375122 
	C326.697937,216.240814 326.355560,216.106506 325.652924,215.508469 
	C325.112701,215.306641 324.572449,215.104797 323.677826,214.429001 
	C323.119476,214.284164 322.561127,214.139343 321.494873,213.505814 
	C319.683380,212.947861 317.871918,212.389893 315.659882,211.417084 
	C315.101257,211.357651 314.542603,211.298203 313.247711,211.037109 
	C311.506836,210.900085 309.765930,210.763062 307.247803,210.342773 
	C306.157227,210.406967 305.066620,210.471146 303.061188,210.344009 
	C298.251099,210.304047 293.440918,210.218857 288.630981,210.231613 
	C262.095978,210.301987 235.561050,210.396255 208.276184,210.278336 
	C207.509155,210.348206 206.742126,210.418060 205.197296,210.309830 
	C204.140167,210.362396 203.083023,210.414963 201.275131,210.265686 
	C200.508102,210.338455 199.741074,210.411240 198.192795,210.316330 
	C197.137085,210.392303 196.081360,210.468277 194.269073,210.333130 
	C191.990189,210.837982 189.711288,211.342834 186.805038,211.781662 
	C185.833939,212.102722 184.862854,212.423782 183.290955,212.805420 
	C182.412582,213.254166 181.534210,213.702896 179.937988,214.286911 
	C177.944717,215.488907 175.951447,216.690887 173.321854,218.024185 
	C172.206131,219.012573 171.090408,220.000961 169.340332,221.248825 
	C165.519409,228.173615 161.706421,235.102814 157.871536,242.019852 
	C156.997528,243.596298 156.047867,245.130814 154.367355,246.436691 
	C151.575882,246.463928 148.784424,246.491165 145.115387,246.321472 
	C141.733673,246.517624 138.351944,246.713776 134.301483,246.987396 
	C133.979370,247.286041 133.657242,247.584686 132.677094,247.866745 
	C130.901138,250.704742 127.683357,253.496429 127.590446,256.388489 
	C127.100624,271.637146 127.152580,286.917328 127.537010,302.173462 
	C127.706413,308.895935 131.814499,312.090240 138.710037,312.205444 
	C143.521881,312.285889 148.339798,312.318298 153.148270,312.163422 
	C155.976288,312.072296 157.546310,313.070984 157.417984,316.881561 
	C157.588943,323.593536 157.759918,330.305542 157.805679,337.803833 
	C157.940735,338.849335 158.075806,339.894806 158.145615,341.618164 
	C158.690247,343.077423 159.234879,344.536652 159.793625,346.745056 
	C161.403152,349.561707 163.012680,352.378387 164.854553,355.844208 
	C167.901093,358.900513 170.947647,361.956848 174.342438,365.598846 
	C180.052841,367.986328 185.778305,370.338837 191.462524,372.787140 
	C192.799561,373.363007 193.997360,374.262146 195.066925,375.670013 
	C195.108200,376.121490 195.149475,376.572937 195.037720,377.495850 
	C195.037720,377.495850 195.169327,377.973694 194.995560,378.900177 
	C195.053192,394.275787 195.110825,409.651398 195.107651,425.672668 
	C195.353897,426.009857 195.600159,426.347015 195.725113,427.355591 
	C197.421875,428.756958 199.118622,430.158325 201.311646,431.840271 
	C201.875519,431.825256 202.439407,431.810211 203.790451,431.984467 
	C204.864685,431.946838 205.938934,431.909210 207.497452,431.997467 
	C207.659042,431.956177 207.820648,431.914856 208.912216,432.016510 
	C227.272888,431.954681 245.633560,431.892853 264.883759,431.992035 
	C267.590576,431.942932 270.297363,431.893799 273.929718,431.989227 
	C279.617828,431.936188 285.305939,431.883179 291.885651,431.983917 
	C294.702972,431.836182 297.556702,431.920715 300.329132,431.486359 
	C304.490784,430.834351 306.868713,428.196930 306.859131,423.932770 
	C306.839752,415.282959 306.634796,406.633575 306.728485,397.208740 
	C306.656586,396.144928 306.584717,395.081146 306.760590,393.107025 
	C306.760590,386.553925 306.760590,380.000854 306.760590,373.858337 
	C310.935516,372.399719 314.460297,371.168243 318.664307,369.884857 
	C320.441833,368.947571 322.219330,368.010284 324.623871,366.968109 
	C325.446198,366.331360 326.268494,365.694580 327.021912,365.022034 
	C327.021912,365.022034 327.049408,365.094666 327.680328,364.922699 
M200.777786,201.391022 
	C239.743668,201.340485 278.709595,201.300430 317.675446,201.231247 
	C326.241150,201.216034 326.222443,201.168427 326.201111,192.865341 
	C326.176300,183.207047 326.283997,173.547058 326.122742,163.891327 
	C326.077698,161.193680 326.946320,159.827957 329.362427,158.516754 
	C343.809235,150.676453 351.161102,134.184235 347.355194,118.739815 
	C343.204865,101.897690 328.957916,90.343491 312.259644,89.781441 
	C301.163513,89.407967 291.300781,92.458466 282.364288,99.506660 
	C273.869690,88.765221 263.120514,83.162140 249.755493,83.313934 
	C236.458176,83.464951 225.863846,89.368355 217.929489,99.674294 
	C215.392502,98.005386 213.517990,96.604988 211.495392,95.468040 
	C194.304947,85.804871 175.131683,88.235268 161.552246,102.300995 
	C144.369583,120.098984 148.676727,145.850327 170.538910,158.599533 
	C173.941910,160.584030 174.992340,162.657837 174.889938,166.419785 
	C174.627243,176.070724 174.978256,185.737747 174.752686,195.390594 
	C174.654175,199.606522 175.818497,201.433899 180.356934,201.244583 
	C186.836441,200.974289 193.341156,201.307602 200.777786,201.391022 
z"/>
<path fill="#000000" opacity="1.000000" stroke="none" 
	d="
M501.000000,246.531342 
	C499.998138,246.364807 498.589386,245.969070 498.054016,245.059357 
	C485.031891,222.931259 472.134979,200.729538 459.147491,178.580963 
	C447.238342,158.271393 435.188019,138.044495 423.314667,117.714127 
	C413.241089,100.465431 403.376526,83.094757 393.330719,65.829689 
	C388.026245,56.713234 382.532257,47.707054 376.841980,37.917324 
	C376.396118,37.154091 376.232147,37.098839 376.068176,37.098770 
	C293.441498,37.064301 210.814819,37.018806 128.188324,37.126251 
	C126.775490,37.128086 125.365059,38.979816 123.953506,39.968330 
	C123.953506,39.968330 124.002220,39.996246 123.680244,40.126366 
	C122.878059,41.491932 122.397858,42.727383 121.917648,43.962833 
	C121.917648,43.962833 121.984512,43.976650 121.728470,44.034527 
	C121.378632,44.396732 121.284843,44.701061 121.191055,45.005390 
	C121.191055,45.005390 121.021690,45.430210 120.740234,45.750320 
	C120.279915,46.374325 120.101059,46.678215 119.922211,46.982109 
	C119.922211,46.982109 119.988625,46.987259 119.734009,47.041100 
	C119.387169,47.396786 119.294952,47.698627 119.202728,48.000473 
	C103.810265,74.296188 88.407928,100.586128 73.027962,126.889153 
	C55.684803,156.549637 38.355450,186.218231 21.033607,215.891159 
	C15.320778,225.677444 9.671910,235.501160 3.925096,245.267349 
	C3.366613,246.216431 2.321570,246.879196 1.251190,247.337433 
	C1.000000,165.036179 1.000000,83.072350 1.000000,1.054260 
	C167.556961,1.054260 334.113953,1.054260 501.000000,1.054260 
	C501.000000,82.687263 501.000000,164.374969 501.000000,246.531342 
z"/>
<path fill="#000000" opacity="1.000000" stroke="none" 
	d="
M1.000002,255.468658 
	C1.995404,255.616287 3.400949,255.991211 3.926368,256.884094 
	C17.996767,280.794495 31.959642,304.768158 45.976681,328.710022 
	C60.626606,353.732941 75.377739,378.696808 89.964180,403.756592 
	C101.135490,422.949097 112.114540,442.253510 123.206100,461.492584 
	C123.608482,462.190491 124.297348,462.723267 125.136047,464.068695 
	C126.245102,464.871124 127.070801,464.996216 127.896515,464.996307 
	C209.585251,465.005157 291.273987,465.009247 372.962677,464.961914 
	C374.250336,464.961182 375.537598,464.321442 376.825073,463.979919 
	C390.222321,441.406616 403.759460,418.914948 416.981934,396.239746 
	C434.122864,366.844666 450.964569,337.275208 468.029877,307.835815 
	C477.939026,290.741486 488.021484,273.747498 498.078339,256.739349 
	C498.639557,255.790268 499.679779,255.124451 500.748535,254.663391 
	C501.000000,336.963806 501.000000,418.927643 501.000000,500.945740 
	C334.443085,500.945740 167.886124,500.945740 1.000000,500.945740 
	C1.000000,419.312744 1.000000,337.625031 1.000002,255.468658 
z"/>
<path fill="#2D3A3D" opacity="1.000000" stroke="none" 
	d="
M200.306442,201.387070 
	C193.341156,201.307602 186.836441,200.974289 180.356934,201.244583 
	C175.818497,201.433899 174.654175,199.606522 174.752686,195.390594 
	C174.978256,185.737747 174.627243,176.070724 174.889938,166.419785 
	C174.992340,162.657837 173.941910,160.584030 170.538910,158.599533 
	C148.676727,145.850327 144.369583,120.098984 161.552246,102.300995 
	C175.131683,88.235268 194.304947,85.804871 211.495392,95.468040 
	C213.517990,96.604988 215.392502,98.005386 217.929489,99.674294 
	C225.863846,89.368355 236.458176,83.464951 249.755493,83.313934 
	C263.120514,83.162140 273.869690,88.765221 282.364288,99.506660 
	C291.300781,92.458466 301.163513,89.407967 312.259644,89.781441 
	C328.957916,90.343491 343.204865,101.897690 347.355194,118.739815 
	C351.161102,134.184235 343.809235,150.676453 329.362427,158.516754 
	C326.946320,159.827957 326.077698,161.193680 326.122742,163.891327 
	C326.283997,173.547058 326.176300,183.207047 326.201111,192.865341 
	C326.222443,201.168427 326.241150,201.216034 317.675446,201.231247 
	C278.709595,201.300430 239.743668,201.340485 200.306442,201.387070 
M311.611389,191.263153 
	C315.267090,191.181931 323.075165,182.628235 322.830475,177.815552 
	C322.507538,171.463654 325.336243,164.608398 320.406464,158.770264 
	C319.913055,158.185928 320.198578,156.863388 320.273468,155.895096 
	C320.476044,153.275879 320.759979,150.662979 321.458923,147.543945 
	C334.641052,139.278473 337.916931,123.702415 328.826660,112.511833 
	C320.185608,101.874321 301.242065,100.709961 291.690521,110.588745 
	C289.928589,112.411034 289.463318,115.740555 288.985748,118.476723 
	C288.545074,121.001480 288.891937,123.663689 288.891937,126.284027 
	C284.808289,126.284027 281.218109,126.284027 277.693756,126.284027 
	C271.700745,102.421989 257.967010,92.351555 240.296371,99.184410 
	C228.790314,104.426132 223.505051,112.128250 223.688553,123.748711 
	C222.593048,124.771828 221.547699,126.589142 220.392212,126.662117 
	C217.477036,126.846199 214.512253,126.244736 211.353058,125.937202 
	C211.353058,123.104362 211.520126,120.629379 211.298843,118.189629 
	C211.129578,116.323463 211.009552,114.071625 209.940750,112.729362 
	C202.291733,103.123192 188.776962,100.784454 177.279755,107.014328 
	C169.012604,112.038101 164.414642,118.931267 165.966339,129.784317 
	C168.276505,143.148788 176.429169,149.934128 190.104050,150.522385 
	C190.104050,163.158386 190.104050,175.417740 190.069733,188.475693 
	C190.362488,192.149933 195.891708,195.248230 200.492706,194.702850 
	C209.197327,193.671082 217.916000,192.614410 226.660080,192.115616 
	C231.523987,191.838165 237.515656,191.023804 241.113434,193.357910 
	C247.358170,197.409286 253.777130,196.503784 259.194763,194.917862 
	C267.561737,192.468521 275.053711,192.821686 283.079559,195.322784 
	C286.865295,196.502548 291.916199,197.899872 294.924438,196.348755 
	C300.141022,193.659027 305.576935,192.545883 311.611389,191.263153 
z"/>
<path fill="#2A373A" opacity="1.000000" stroke="none" 
	d="
M334.068604,222.971115 
	C335.656555,225.104263 337.244537,227.237427 338.948364,229.991608 
	C339.397827,231.069077 339.731415,231.525497 340.065033,231.981934 
	C340.582733,233.011063 341.100433,234.040192 341.326721,235.649353 
	C340.450348,238.249969 339.865387,240.270569 339.183472,242.626038 
	C341.200256,242.806366 342.440704,242.917282 343.681152,243.028198 
	C343.821411,243.733612 343.961639,244.439026 344.054932,245.860458 
	C344.006104,247.047928 344.004272,247.519379 344.063690,248.354523 
	C345.000244,250.019562 345.727875,252.290100 346.777130,252.449966 
	C350.751007,253.055450 352.072052,256.194946 353.568726,258.984436 
	C350.519318,259.272522 347.903015,259.410522 344.542999,259.587799 
	C344.542999,269.518921 344.542999,279.251740 344.182587,289.016968 
	C342.894379,290.872467 341.300110,292.688507 341.280823,294.521088 
	C341.268616,295.678955 343.608154,296.861542 345.324310,298.114136 
	C349.501404,298.195221 353.247009,298.195221 357.015045,298.195221 
	C357.015045,285.069763 357.015045,272.032410 357.315796,258.864990 
	C359.555573,258.983337 361.494598,259.231750 363.433624,259.480133 
	C363.600067,259.102814 363.766479,258.725464 363.932892,258.348114 
	C362.847443,257.688995 361.435760,257.265167 360.751678,256.316620 
	C359.677948,254.827759 359.095032,252.984940 358.304291,251.291992 
	C360.151672,250.732239 361.992859,249.752884 363.848175,249.725311 
	C365.892426,249.694946 367.949646,250.538803 369.938110,251.368240 
	C367.924194,257.832550 369.458221,263.586456 373.680969,266.010498 
	C373.765564,273.361115 373.850128,280.711761 373.489594,288.624481 
	C372.364990,290.738770 371.313599,292.240112 371.092834,293.854980 
	C370.758118,296.303070 370.930695,298.832489 371.016144,301.322968 
	C371.122864,304.431610 370.695038,306.635406 366.771545,307.300629 
	C364.977570,307.604797 363.565826,310.163727 361.980713,311.700043 
	C358.618530,311.763641 355.256348,311.827240 351.455902,311.406433 
	C351.124084,307.412567 353.656982,307.048462 356.267303,307.037903 
	C359.833801,307.023438 363.044373,306.809937 363.328461,302.059143 
	C363.375732,301.268219 364.489716,300.529114 365.135986,299.788086 
	C367.724976,296.819611 366.638885,295.186676 363.329865,294.195740 
	C357.472443,302.920197 353.402344,304.161224 342.622772,300.597534 
	C339.096588,304.303833 343.745392,306.854584 343.642609,310.019653 
	C341.414856,311.578674 337.322815,310.747498 338.000000,315.333313 
	C338.000397,316.111115 338.000793,316.555542 338.060425,317.328949 
	C339.079773,318.438202 340.039886,319.218475 341.000000,320.427185 
	C340.963562,322.341522 341.094574,323.854340 340.861328,325.308716 
	C339.895172,331.332947 336.044128,334.673218 331.000000,333.535828 
	C330.430389,323.373962 333.488281,313.724792 331.172028,303.937622 
	C330.706604,301.971069 331.785400,298.467743 333.328094,297.442810 
	C336.471375,295.354462 336.235199,292.716217 335.855133,290.027008 
	C335.069946,284.471497 333.720367,278.995819 332.934296,273.440399 
	C331.909943,266.201263 329.169891,258.869385 333.940247,251.773254 
	C334.614655,250.770035 334.144226,248.527603 333.501892,247.197739 
	C331.647491,243.358551 328.713715,239.897263 327.577850,235.897385 
	C326.568512,232.343002 325.206696,233.056305 322.749756,233.839661 
	C320.968384,232.140869 319.478882,230.585083 317.966980,228.649780 
	C316.134796,227.231232 314.325073,226.192184 312.122009,225.173279 
	C310.161407,225.103104 308.594147,225.012802 306.666199,224.753967 
	C303.529907,224.649307 300.754303,224.713165 297.531433,224.637238 
	C290.395782,224.595642 283.707428,224.693802 276.583496,224.656830 
	C273.426117,224.606812 270.704285,224.691910 267.557129,224.639694 
	C264.764069,224.608429 262.396362,224.714493 259.577911,224.680054 
	C247.085907,224.603989 235.044632,224.668442 222.568665,224.594208 
	C219.410202,224.547379 216.686417,224.639236 213.610001,224.590454 
	C212.516846,224.543228 211.776337,224.636673 210.609253,224.579956 
	C207.796295,224.544052 205.409882,224.658279 202.638214,224.639832 
	C200.173187,224.681122 198.093414,224.855103 195.638123,224.951889 
	C194.511093,224.994324 193.759583,225.113953 192.688080,225.186218 
	C191.193222,225.619080 190.018341,226.099319 188.524536,226.645004 
	C187.457901,227.136841 186.710159,227.563232 185.730408,227.667191 
	C184.996689,223.560242 184.494995,219.775757 183.994507,215.743042 
	C183.995697,215.494827 183.997559,214.998169 184.408508,214.998535 
	C187.004929,214.805832 189.883057,215.823853 190.372772,212.021469 
	C192.165894,211.522980 193.595764,211.033615 195.025650,210.544266 
	C196.081360,210.468277 197.137085,210.392303 198.677979,210.664398 
	C200.117401,210.830826 201.071640,210.649185 202.025894,210.467545 
	C203.083023,210.414963 204.140167,210.362396 205.690308,210.650940 
	C207.130920,210.822128 208.078506,210.652222 209.026093,210.482330 
	C235.561050,210.396255 262.095978,210.301987 288.630981,210.231613 
	C293.440918,210.218857 298.251099,210.304047 303.647491,210.697113 
	C305.497559,210.908813 306.761292,210.767441 308.025055,210.626053 
	C309.765930,210.763062 311.506836,210.900085 313.686096,211.388306 
	C314.769806,211.770309 315.415131,211.801117 316.060425,211.831924 
	C317.871918,212.389893 319.683380,212.947861 321.596802,214.064301 
	C320.259460,216.292831 318.820190,217.962906 316.570770,220.573029 
	C321.781616,221.445526 326.392151,222.217514 331.385864,222.991837 
	C332.535553,222.986496 333.302094,222.978806 334.068604,222.971115 
M339.583649,245.693527 
	C339.092651,246.117859 338.257660,246.483719 338.173767,246.977234 
	C337.899292,248.591934 337.777435,250.264511 337.930084,251.883392 
	C337.951538,252.110855 339.831299,252.163055 340.850861,252.296371 
	C341.072540,250.554230 341.393127,248.815231 341.448975,247.067795 
	C341.463654,246.609482 340.657349,246.124924 339.583649,245.693527 
z"/>
<path fill="#2D3A3D" opacity="1.000000" stroke="none" 
	d="
M183.993286,215.991272 
	C184.494995,219.775757 184.996689,223.560242 185.752121,227.887085 
	C186.005859,228.429443 185.944183,228.867050 185.571869,228.873474 
	C184.464951,228.916214 183.730331,228.952515 182.848511,228.685822 
	C181.406982,225.600922 179.643890,225.737244 177.785629,227.723602 
	C175.372849,230.302673 173.071243,232.985733 170.237946,236.167358 
	C171.652756,237.132614 173.177780,238.173035 174.659042,239.572296 
	C174.155518,241.294296 173.695724,242.657471 172.843628,244.041107 
	C168.958145,246.474564 169.043304,248.086624 172.867310,250.469269 
	C173.002213,275.657318 172.972824,300.387665 173.118668,325.116943 
	C173.149811,330.394440 173.817566,335.668182 173.855072,341.037781 
	C173.188828,342.097351 172.321213,343.314728 172.632645,343.980286 
	C173.515533,345.867065 175.183746,347.405090 175.960068,349.317017 
	C176.582642,350.850372 176.499619,352.737610 176.405258,354.449921 
	C176.379944,354.909119 174.762207,355.803070 174.567612,355.645050 
	C173.370041,354.672699 172.026947,353.624298 171.372971,352.287720 
	C169.706955,348.882660 168.280319,345.348816 166.965332,341.789856 
	C166.475662,340.464600 166.128616,338.818817 166.454376,337.501678 
	C169.586517,324.837799 167.975082,312.147552 166.784744,299.468781 
	C166.682144,298.375977 165.528595,297.381836 164.863220,296.341858 
	C164.400726,296.524536 163.938232,296.707214 163.475739,296.889893 
	C163.813629,299.926392 164.098465,302.969879 164.499878,305.997986 
	C165.491135,313.475739 163.891418,315.851837 157.689636,315.977203 
	C157.546310,313.070984 155.976288,312.072296 153.148270,312.163422 
	C148.339798,312.318298 143.521881,312.285889 138.710037,312.205444 
	C131.814499,312.090240 127.706413,308.895935 127.537010,302.173462 
	C127.152580,286.917328 127.100624,271.637146 127.590446,256.388489 
	C127.683357,253.496429 130.901138,250.704742 133.319092,247.783066 
	C134.297455,247.436234 134.633835,247.173080 134.970215,246.909927 
	C138.351944,246.713776 141.733673,246.517624 145.742538,246.722839 
	C149.290802,246.977676 152.211914,246.831161 155.133026,246.684631 
	C156.047867,245.130814 156.997528,243.596298 157.871536,242.019852 
	C161.706421,235.102814 165.519409,228.173615 170.020752,221.109924 
	C171.786819,219.944977 172.872498,218.918930 173.958176,217.892883 
	C175.951447,216.690887 177.944717,215.488907 180.512421,214.562897 
	C182.055664,215.223022 183.024475,215.607147 183.993286,215.991272 
M143.356415,262.119720 
	C143.514038,262.748138 143.671661,263.376526 144.052567,264.918121 
	C144.052567,276.142456 144.052567,287.366791 144.052567,298.524567 
	C148.706360,298.524567 152.738327,298.524567 156.654388,298.524567 
	C156.654388,285.354706 156.654388,272.636597 156.654388,259.558655 
	C153.334290,259.558655 150.331100,259.322296 147.397003,259.669647 
	C146.142151,259.818176 145.031265,261.182983 143.356415,262.119720 
z"/>
<path fill="#283639" opacity="1.000000" stroke="none" 
	d="
M207.013168,431.871582 
	C205.938934,431.909210 204.864685,431.946838 203.310242,431.624390 
	C202.158478,431.362762 201.486923,431.461212 200.815369,431.559692 
	C199.118622,430.158325 197.421875,428.756958 195.736725,426.718018 
	C195.555054,425.729279 195.361755,425.378143 195.168472,425.027008 
	C195.110825,409.651398 195.053192,394.275787 195.186569,378.337036 
	C195.514862,377.482819 195.452591,377.233002 195.190765,377.024414 
	C195.149475,376.572937 195.108200,376.121490 195.556274,375.340790 
	C201.883408,374.550476 203.513504,379.329865 204.823318,383.168152 
	C206.329941,387.583130 206.550827,392.491211 206.925339,397.217194 
	C207.138535,399.907715 207.997284,401.226990 210.867004,401.370148 
	C210.906128,402.487152 210.829926,403.239624 210.385742,403.996277 
	C204.621918,405.957581 203.815292,409.437256 207.023102,417.337952 
	C208.115952,421.829926 209.679871,418.826080 211.560028,417.976562 
	C237.685989,417.891998 263.349854,417.785431 289.286407,417.779266 
	C289.892853,417.570251 290.226624,417.260834 290.649780,416.493866 
	C290.816528,407.024200 290.893860,398.012085 291.311829,388.890686 
	C294.554169,384.546722 295.929199,380.052460 294.321838,375.081299 
	C299.611420,379.094238 304.491730,382.973694 303.599823,390.475586 
	C303.474976,391.525879 305.488953,392.830475 306.512848,394.017334 
	C306.584717,395.081146 306.656586,396.144928 306.305756,397.700165 
	C303.599304,404.119049 301.158752,409.992493 299.092560,415.994812 
	C297.913605,419.419739 297.808258,423.264008 296.337158,426.520935 
	C295.371460,428.658966 292.829895,430.085175 290.994080,431.830200 
	C285.305939,431.883179 279.617828,431.936188 273.351868,431.581848 
	C269.634521,428.546448 266.578430,427.033081 263.994232,431.830994 
	C245.633560,431.892853 227.272888,431.954681 208.343933,431.838562 
	C207.473999,431.523895 207.219849,431.594208 207.013168,431.871582 
z"/>
<path fill="#2F3A3C" opacity="1.000000" stroke="none" 
	d="
M293.996521,374.995758 
	C295.929199,380.052460 294.554169,384.546722 291.199341,388.574158 
	C290.666016,387.928009 290.585846,387.489044 290.620087,386.643707 
	C290.327148,384.170746 292.430267,380.849701 288.008606,380.427399 
	C287.291626,379.247375 286.675049,377.847992 285.846130,377.708313 
	C282.177521,377.089935 278.455048,376.637756 274.738312,376.502167 
	C271.140289,376.370911 267.309204,376.275818 265.574158,380.991821 
	C263.436279,381.027649 261.719849,380.975006 259.894348,380.589600 
	C255.989700,376.251984 250.845535,375.995239 246.467468,377.514709 
	C244.103622,378.335083 239.632477,375.977203 238.599304,380.925598 
	C237.139328,380.971161 236.072037,380.928802 234.898026,380.551971 
	C228.885025,375.815063 222.171646,375.053589 215.302826,376.662079 
	C213.640121,377.051483 212.519470,379.755463 211.140625,381.781982 
	C211.019089,383.445831 210.906494,384.722809 210.441391,385.905518 
	C205.874969,383.089294 208.277100,379.236023 209.234589,376.391144 
	C210.046570,373.978607 213.006134,372.288879 215.183487,370.111176 
	C214.868057,368.578186 214.389938,366.254578 213.945419,364.094208 
	C211.431381,362.560211 208.715042,360.902771 206.461761,359.167725 
	C236.370941,359.059692 265.817932,359.137054 295.262421,358.903778 
	C300.834290,358.859619 306.396362,357.581909 311.917969,357.218933 
	C311.052094,359.716583 308.871948,362.853333 312.963440,363.168945 
	C317.637268,363.529541 322.839539,364.102234 326.458710,359.379303 
	C327.812897,357.612122 329.932495,356.431519 331.703094,354.983459 
	C332.025665,355.263855 332.348236,355.544250 332.670807,355.824677 
	C332.445984,357.546112 332.221191,359.267578 331.996368,360.989014 
	C331.359772,361.661896 330.723175,362.334778 329.451782,363.099792 
	C328.227844,363.826202 327.638611,364.460419 327.049408,365.094666 
	C327.049408,365.094666 327.021912,365.022034 326.704224,365.042633 
	C325.589966,365.733154 324.793396,366.403076 323.996826,367.072998 
	C322.219330,368.010284 320.441833,368.947571 318.303223,369.548370 
	C316.829742,368.152649 315.886169,366.738129 314.568054,366.111938 
	C312.199219,364.986664 309.281891,364.817810 307.163605,363.398712 
	C299.153687,358.032532 291.509430,364.132538 283.697693,363.829559 
	C283.215210,363.810883 282.689819,364.898804 281.795898,365.912323 
	C285.070709,369.007263 293.398560,367.300140 290.576477,374.995758 
	C291.937439,374.995758 292.966980,374.995758 293.996521,374.995758 
z"/>
<path fill="#2F3A3C" opacity="1.000000" stroke="none" 
	d="
M157.553802,316.429382 
	C163.891418,315.851837 165.491135,313.475739 164.499878,305.997986 
	C164.098465,302.969879 163.813629,299.926392 163.475739,296.889893 
	C163.938232,296.707214 164.400726,296.524536 164.863220,296.341858 
	C165.528595,297.381836 166.682144,298.375977 166.784744,299.468781 
	C167.975082,312.147552 169.586517,324.837799 166.454376,337.501678 
	C166.128616,338.818817 166.475662,340.464600 166.965332,341.789856 
	C168.280319,345.348816 169.706955,348.882660 171.372971,352.287720 
	C172.026947,353.624298 173.370041,354.672699 174.567612,355.645050 
	C174.762207,355.803070 176.379944,354.909119 176.405258,354.449921 
	C176.499619,352.737610 176.582642,350.850372 175.960068,349.317017 
	C175.183746,347.405090 173.515533,345.867065 172.632645,343.980286 
	C172.321213,343.314728 173.188828,342.097351 174.102997,341.263794 
	C180.031372,352.395416 188.694992,358.485687 200.850174,359.526886 
	C197.143448,360.074066 193.587296,360.284637 189.966278,360.499023 
	C189.899780,366.623444 186.503738,368.591217 179.864899,365.998016 
	C178.055786,365.291351 175.958954,365.321320 173.994171,365.013184 
	C170.947647,361.956848 167.901093,358.900513 165.017090,355.266388 
	C166.552948,349.819641 164.381195,347.153015 159.779510,345.995911 
	C159.234879,344.536652 158.690247,343.077423 158.359131,341.020691 
	C158.358734,339.287994 158.144806,338.152740 157.930893,337.017517 
	C157.759918,330.305542 157.588943,323.593536 157.553802,316.429382 
M178.915359,360.492920 
	C179.490280,360.178986 180.065201,359.865082 180.640137,359.551178 
	C180.251663,359.152863 179.863190,358.754517 179.474731,358.356201 
	C179.149124,358.925385 178.823532,359.494537 178.915359,360.492920 
M187.066849,359.408356 
	C186.774231,359.106903 186.481613,358.805450 186.188980,358.503998 
	C186.001724,358.710693 185.814468,358.917389 185.627213,359.124054 
	C186.002106,359.319885 186.376999,359.515686 187.066849,359.408356 
z"/>
<path fill="#2D3A3D" opacity="1.000000" stroke="none" 
	d="
M174.168304,365.306030 
	C175.958954,365.321320 178.055786,365.291351 179.864899,365.998016 
	C186.503738,368.591217 189.899780,366.623444 189.966278,360.499023 
	C193.587296,360.284637 197.143448,360.074066 201.263306,359.458252 
	C203.217590,359.117096 204.608139,359.181244 205.998703,359.245361 
	C208.715042,360.902771 211.431381,362.560211 213.945419,364.094208 
	C214.389938,366.254578 214.868057,368.578186 215.183487,370.111176 
	C213.006134,372.288879 210.046570,373.978607 209.234589,376.391144 
	C208.277100,379.236023 205.874969,383.089294 210.559326,386.358826 
	C210.937073,391.606079 210.844360,396.305847 210.751648,401.005585 
	C207.997284,401.226990 207.138535,399.907715 206.925339,397.217194 
	C206.550827,392.491211 206.329941,387.583130 204.823318,383.168152 
	C203.513504,379.329865 201.883408,374.550476 195.652405,375.012085 
	C193.997360,374.262146 192.799561,373.363007 191.462524,372.787140 
	C185.778305,370.338837 180.052841,367.986328 174.168304,365.306030 
z"/>
<path fill="#2D3A3D" opacity="1.000000" stroke="none" 
	d="
M332.295105,360.836456 
	C332.221191,359.267578 332.445984,357.546112 332.670807,355.824677 
	C332.348236,355.544250 332.025665,355.263855 331.703094,354.983459 
	C329.932495,356.431519 327.812897,357.612122 326.458710,359.379303 
	C322.839539,364.102234 317.637268,363.529541 312.963440,363.168945 
	C308.871948,362.853333 311.052094,359.716583 312.083618,356.976196 
	C312.840576,356.204285 313.386932,356.020630 314.214355,356.095581 
	C318.072998,356.105530 321.928223,356.555664 325.103485,355.294281 
	C326.550537,354.719421 326.713654,350.779388 327.355225,348.338379 
	C328.608734,343.569031 329.789246,338.780548 331.000000,334.000000 
	C336.044128,334.673218 339.895172,331.332947 340.861328,325.308716 
	C341.094574,323.854340 340.963562,322.341522 340.940399,320.098450 
	C339.920898,318.560852 338.961060,317.780426 338.001221,317.000000 
	C338.000793,316.555542 338.000397,316.111115 338.359558,315.273346 
	C340.139679,314.586304 341.560242,314.292572 342.987183,314.365265 
	C343.365723,315.834015 343.737854,316.936310 344.109985,318.038635 
	C344.154205,323.048431 344.198425,328.058197 343.873291,333.783051 
	C342.174164,338.697815 340.772705,342.876801 339.550171,347.107513 
	C339.066650,348.780731 338.981201,350.568970 338.714539,352.304840 
	C336.674316,355.097870 334.634094,357.890900 332.295105,360.836456 
z"/>
<path fill="#2D3A3D" opacity="1.000000" stroke="none" 
	d="
M294.321838,375.081299 
	C292.966980,374.995758 291.937439,374.995758 290.576477,374.995758 
	C293.398560,367.300140 285.070709,369.007263 281.795898,365.912323 
	C282.689819,364.898804 283.215210,363.810883 283.697693,363.829559 
	C291.509430,364.132538 299.153687,358.032532 307.163605,363.398712 
	C309.281891,364.817810 312.199219,364.986664 314.568054,366.111938 
	C315.886169,366.738129 316.829742,368.152649 317.963623,369.574341 
	C314.460297,371.168243 310.935516,372.399719 306.760590,373.858337 
	C306.760590,380.000854 306.760590,386.553925 306.636719,393.562195 
	C305.488953,392.830475 303.474976,391.525879 303.599823,390.475586 
	C304.491730,382.973694 299.611420,379.094238 294.321838,375.081299 
z"/>
<path fill="#A1D0D0" opacity="1.000000" stroke="none" 
	d="
M124.290421,39.963627 
	C125.365059,38.979816 126.775490,37.128086 128.188324,37.126251 
	C210.814819,37.018806 293.441498,37.064301 376.068176,37.098770 
	C376.232147,37.098839 376.396118,37.154091 376.690002,37.596901 
	C296.123108,38.007141 215.426254,37.980446 134.729553,38.083797 
	C131.361359,38.088108 127.994698,39.306267 124.290421,39.963627 
z"/>
<path fill="#9DCED2" opacity="1.000000" stroke="none" 
	d="
M376.367432,463.985229 
	C375.537598,464.321442 374.250336,464.961182 372.962677,464.961914 
	C291.273987,465.009247 209.585251,465.005157 127.896515,464.996307 
	C127.070801,464.996216 126.245102,464.871124 125.292465,464.386963 
	C208.746979,463.976562 292.328430,463.983551 376.367432,463.985229 
z"/>
<path fill="#2D3A3D" opacity="1.000000" stroke="none" 
	d="
M291.439880,431.907043 
	C292.829895,430.085175 295.371460,428.658966 296.337158,426.520935 
	C297.808258,423.264008 297.913605,419.419739 299.092560,415.994812 
	C301.158752,409.992493 303.599304,404.119049 306.194672,398.087799 
	C306.634796,406.633575 306.839752,415.282959 306.859131,423.932770 
	C306.868713,428.196930 304.490784,430.834351 300.329132,431.486359 
	C297.556702,431.920715 294.702972,431.836182 291.439880,431.907043 
z"/>
<path fill="#27373B" opacity="1.000000" stroke="none" 
	d="
M354.001831,258.834351 
	C352.072052,256.194946 350.751007,253.055450 346.777130,252.449966 
	C345.727875,252.290100 345.000244,250.019562 344.317108,248.318878 
	C345.016266,247.517227 345.523193,247.114914 346.030151,246.712601 
	C353.508514,246.952377 360.986908,247.192154 368.813324,248.018921 
	C369.822266,249.051071 370.483185,249.496246 371.144073,249.941422 
	C371.482697,250.021530 371.736938,250.213455 371.615417,250.757355 
	C370.883087,250.998962 370.442169,251.000397 370.001221,251.001831 
	C367.949646,250.538803 365.892426,249.694946 363.848175,249.725311 
	C361.992859,249.752884 360.151672,250.732239 358.304291,251.291992 
	C359.095032,252.984940 359.677948,254.827759 360.751678,256.316620 
	C361.435760,257.265167 362.847443,257.688995 363.932892,258.348114 
	C363.766479,258.725464 363.600067,259.102814 363.433624,259.480133 
	C361.494598,259.231750 359.555573,258.983337 356.936096,258.872223 
	C355.504395,258.951141 354.753113,258.892761 354.001831,258.834351 
z"/>
<path fill="#27373B" opacity="1.000000" stroke="none" 
	d="
M344.000000,309.997559 
	C343.745392,306.854584 339.096588,304.303833 342.622772,300.597534 
	C353.402344,304.161224 357.472443,302.920197 363.329865,294.195740 
	C366.638885,295.186676 367.724976,296.819611 365.135986,299.788086 
	C364.489716,300.529114 363.375732,301.268219 363.328461,302.059143 
	C363.044373,306.809937 359.833801,307.023438 356.267303,307.037903 
	C353.656982,307.048462 351.124084,307.412567 351.010132,311.294373 
	C349.158386,311.746460 347.314117,311.826111 344.894409,311.839783 
	C344.318909,311.773773 344.087952,311.765106 344.062622,311.471832 
	C344.024841,310.784882 344.012421,310.391235 344.000000,309.997559 
z"/>
<path fill="#314145" opacity="1.000000" stroke="none" 
	d="
M362.373291,311.813660 
	C363.565826,310.163727 364.977570,307.604797 366.771545,307.300629 
	C370.695038,306.635406 371.122864,304.431610 371.016144,301.322968 
	C370.930695,298.832489 370.758118,296.303070 371.092834,293.854980 
	C371.313599,292.240112 372.364990,290.738770 373.404663,289.085114 
	C373.801849,292.747101 373.887207,296.510834 373.865936,300.273956 
	C373.818817,308.598572 371.275543,311.243164 362.373291,311.813660 
z"/>
<path fill="#2F3A3C" opacity="1.000000" stroke="none" 
	d="
M331.002655,222.989487 
	C326.392151,222.217514 321.781616,221.445526 316.570770,220.573029 
	C318.820190,217.962906 320.259460,216.292831 321.850769,214.308655 
	C322.561127,214.139343 323.119476,214.284164 323.858093,214.975861 
	C324.692932,216.019150 325.347504,216.515549 326.336609,216.983459 
	C326.892578,216.922943 327.114075,216.890900 327.335571,216.858871 
	C328.499634,217.650040 329.663696,218.441208 330.932739,219.909760 
	C331.026031,221.387939 331.014343,222.188721 331.002655,222.989487 
z"/>
<path fill="#2F3A3C" opacity="1.000000" stroke="none" 
	d="
M369.938110,251.368240 
	C370.442169,251.000397 370.883087,250.998962 371.654724,250.998779 
	C372.413635,251.741989 372.841858,252.483948 372.988861,253.833496 
	C373.040222,256.630707 373.372803,258.820282 373.705414,261.009888 
	C373.766144,262.404755 373.826874,263.799622 373.784302,265.602478 
	C369.458221,263.586456 367.924194,257.832550 369.938110,251.368240 
z"/>
<path fill="#314145" opacity="1.000000" stroke="none" 
	d="
M338.955688,352.094482 
	C338.981201,350.568970 339.066650,348.780731 339.550171,347.107513 
	C340.772705,342.876801 342.174164,338.697815 343.775452,334.240082 
	C342.430237,339.949402 340.813538,345.916779 338.955688,352.094482 
z"/>
<path fill="#2D3A3D" opacity="1.000000" stroke="none" 
	d="
M159.786560,346.370483 
	C164.381195,347.153015 166.552948,349.819641 164.900909,354.941803 
	C163.012680,352.378387 161.403152,349.561707 159.786560,346.370483 
z"/>
<path fill="#314145" opacity="1.000000" stroke="none" 
	d="
M343.716980,242.669189 
	C342.440704,242.917282 341.200256,242.806366 339.183472,242.626038 
	C339.865387,240.270569 340.450348,238.249969 341.367004,235.999191 
	C342.383362,237.949402 343.068115,240.129791 343.716980,242.669189 
z"/>
<path fill="#2D3A3D" opacity="1.000000" stroke="none" 
	d="
M264.438995,431.911499 
	C266.578430,427.033081 269.634521,428.546448 272.889099,431.509583 
	C270.297363,431.893799 267.590576,431.942932 264.438995,431.911499 
z"/>
<path fill="#303F43" opacity="1.000000" stroke="none" 
	d="
M154.750183,246.560669 
	C152.211914,246.831161 149.290802,246.977676 146.181320,246.821304 
	C148.784424,246.491165 151.575882,246.463928 154.750183,246.560669 
z"/>
<path fill="#2D3A3D" opacity="1.000000" stroke="none" 
	d="
M190.009521,212.030609 
	C189.883057,215.823853 187.004929,214.805832 184.397064,214.622742 
	C183.947037,213.745987 183.919403,213.245438 183.891769,212.744873 
	C184.862854,212.423782 185.833939,212.102722 187.549286,211.855194 
	C188.865540,211.962692 189.437531,211.996643 190.009521,212.030609 
z"/>
<path fill="#314145" opacity="1.000000" stroke="none" 
	d="
M373.808960,260.608276 
	C373.372803,258.820282 373.040222,256.630707 372.977814,254.165131 
	C373.469513,255.995010 373.691010,258.100830 373.808960,260.608276 
z"/>
<path fill="#314145" opacity="1.000000" stroke="none" 
	d="
M344.087952,311.765106 
	C344.087952,311.765106 344.318909,311.773773 344.431976,311.794800 
	C344.481995,313.649872 344.418915,315.483917 344.232910,317.678284 
	C343.737854,316.936310 343.365723,315.834015 343.045227,314.052826 
	C343.427246,312.837677 343.757599,312.301392 344.087952,311.765106 
z"/>
<path fill="#314145" opacity="1.000000" stroke="none" 
	d="
M190.372772,212.021469 
	C189.437531,211.996643 188.865540,211.962692 187.862976,211.888214 
	C189.711288,211.342834 191.990189,210.837982 194.647369,210.438690 
	C193.595764,211.033615 192.165894,211.522980 190.372772,212.021469 
z"/>
<path fill="#314145" opacity="1.000000" stroke="none" 
	d="
M183.591370,212.775146 
	C183.919403,213.245438 183.947037,213.745987 183.986115,214.622360 
	C183.997559,214.998169 183.995697,215.494827 183.994492,215.743042 
	C183.024475,215.607147 182.055664,215.223022 180.871353,214.495270 
	C181.534210,213.702896 182.412582,213.254166 183.591370,212.775146 
z"/>
<path fill="#314145" opacity="1.000000" stroke="none" 
	d="
M307.636414,210.484406 
	C306.761292,210.767441 305.497559,210.908813 304.104919,210.792770 
	C305.066620,210.471146 306.157227,210.406967 307.636414,210.484406 
z"/>
<path fill="#314145" opacity="1.000000" stroke="none" 
	d="
M173.640015,217.958527 
	C172.872498,218.918930 171.786819,219.944977 170.337921,220.980194 
	C171.090408,220.000961 172.206131,219.012573 173.640015,217.958527 
z"/>
<path fill="#A1D0D0" opacity="1.000000" stroke="none" 
	d="
M122.261978,43.867252 
	C122.397858,42.727383 122.878059,41.491932 123.662712,40.104240 
	C123.513535,41.225224 123.059914,42.498447 122.261978,43.867252 
z"/>
<path fill="#314145" opacity="1.000000" stroke="none" 
	d="
M208.651138,210.380325 
	C208.078506,210.652222 207.130920,210.822128 206.079224,210.739975 
	C206.742126,210.418060 207.509155,210.348206 208.651138,210.380325 
z"/>
<path fill="#314145" opacity="1.000000" stroke="none" 
	d="
M331.385864,222.991837 
	C331.014343,222.188721 331.026031,221.387939 331.062683,220.186798 
	C332.022308,220.642654 332.957031,221.498856 333.980164,222.663086 
	C333.302094,222.978806 332.535553,222.986496 331.385864,222.991837 
z"/>
<path fill="#314145" opacity="1.000000" stroke="none" 
	d="
M201.650513,210.366608 
	C201.071640,210.649185 200.117401,210.830826 199.068604,210.748230 
	C199.741074,210.411240 200.508102,210.338455 201.650513,210.366608 
z"/>
<path fill="#2A373A" opacity="1.000000" stroke="none" 
	d="
M326.002106,217.011963 
	C325.347504,216.515549 324.692932,216.019150 324.035278,215.212860 
	C324.572449,215.104797 325.112701,215.306641 325.825745,216.000244 
	C325.999756,216.665329 326.000916,216.838638 326.002106,217.011963 
z"/>
<path fill="#2D3A3D" opacity="1.000000" stroke="none" 
	d="
M324.310364,367.020569 
	C324.793396,366.403076 325.589966,365.733154 326.738678,365.060547 
	C326.268494,365.694580 325.446198,366.331360 324.310364,367.020569 
z"/>
<path fill="#314145" opacity="1.000000" stroke="none" 
	d="
M345.714813,246.541901 
	C345.523193,247.114914 345.016266,247.517227 344.255890,247.955200 
	C344.004272,247.519379 344.006104,247.047928 344.031677,246.223526 
	C344.503418,246.037460 344.951447,246.204330 345.714813,246.541901 
z"/>
<path fill="#2D3A3D" opacity="1.000000" stroke="none" 
	d="
M201.063507,431.699982 
	C201.486923,431.461212 202.158478,431.362762 202.916656,431.529724 
	C202.439407,431.810211 201.875519,431.825256 201.063507,431.699982 
z"/>
<path fill="#2D3A3D" opacity="1.000000" stroke="none" 
	d="
M327.364868,365.008667 
	C327.638611,364.460419 328.227844,363.826202 329.174255,363.165161 
	C328.914398,363.733154 328.297363,364.327911 327.364868,365.008667 
z"/>
<path fill="#314145" opacity="1.000000" stroke="none" 
	d="
M371.051971,249.645432 
	C370.483185,249.496246 369.822266,249.051071 369.083374,248.295349 
	C369.656860,248.439667 370.308350,248.894547 371.051971,249.645432 
z"/>
<path fill="#314145" opacity="1.000000" stroke="none" 
	d="
M315.860168,211.624512 
	C315.415131,211.801117 314.769806,211.770309 314.054260,211.489136 
	C314.542603,211.298203 315.101257,211.357651 315.860168,211.624512 
z"/>
<path fill="#2D3A3D" opacity="1.000000" stroke="none" 
	d="
M157.868286,337.410675 
	C158.144806,338.152740 158.358734,339.287994 158.391754,340.681763 
	C158.075806,339.894806 157.940735,338.849335 157.868286,337.410675 
z"/>
<path fill="#314145" opacity="1.000000" stroke="none" 
	d="
M340.048553,231.687973 
	C339.731415,231.525497 339.397827,231.069077 339.025024,230.324554 
	C339.334564,230.488968 339.683319,230.941498 340.048553,231.687973 
z"/>
<path fill="#A1D0D0" opacity="1.000000" stroke="none" 
	d="
M121.353218,44.847725 
	C121.284843,44.701061 121.378632,44.396732 121.720352,44.001366 
	C121.861214,44.195740 121.710251,44.455650 121.353218,44.847725 
z"/>
<path fill="#303F43" opacity="1.000000" stroke="none" 
	d="
M134.635849,246.948654 
	C134.633835,247.173080 134.297455,247.436234 133.648102,247.791351 
	C133.657242,247.584686 133.979370,247.286041 134.635849,246.948654 
z"/>
<path fill="#2D3A3D" opacity="1.000000" stroke="none" 
	d="
M195.114243,377.260132 
	C195.452591,377.233002 195.514862,377.482819 195.273453,377.873779 
	C195.169327,377.973694 195.037720,377.495850 195.114243,377.260132 
z"/>
<path fill="#A1D0D0" opacity="1.000000" stroke="none" 
	d="
M120.134415,46.837296 
	C120.101059,46.678215 120.279915,46.374325 120.715179,45.977615 
	C120.763260,46.154022 120.554932,46.423256 120.134415,46.837296 
z"/>
<path fill="#A1D0D0" opacity="1.000000" stroke="none" 
	d="
M119.362671,47.844654 
	C119.294952,47.698627 119.387169,47.396786 119.727325,47.008469 
	C119.866409,47.202419 119.715523,47.458035 119.362671,47.844654 
z"/>
<path fill="#2D3A3D" opacity="1.000000" stroke="none" 
	d="
M195.138062,425.349854 
	C195.361755,425.378143 195.555054,425.729279 195.797363,426.382324 
	C195.600159,426.347015 195.353897,426.009857 195.138062,425.349854 
z"/>
<path fill="#2D3A3D" opacity="1.000000" stroke="none" 
	d="
M207.255310,431.934509 
	C207.219849,431.594208 207.473999,431.523895 207.878967,431.767090 
	C207.820648,431.914856 207.659042,431.956177 207.255310,431.934509 
z"/>
<path fill="#314145" opacity="1.000000" stroke="none" 
	d="
M326.336609,216.983459 
	C326.000916,216.838638 325.999756,216.665329 326.005859,216.232101 
	C326.355560,216.106506 326.697937,216.240814 327.187958,216.617004 
	C327.114075,216.890900 326.892578,216.922943 326.336609,216.983459 
z"/>
<path fill="#F4F5EA" opacity="1.000000" stroke="none" 
	d="
M177.971313,106.938538 
	C188.776962,100.784454 202.291733,103.123192 209.940750,112.729362 
	C211.009552,114.071625 211.129578,116.323463 211.298843,118.189629 
	C211.520126,120.629379 211.353058,123.104362 211.353058,125.937202 
	C214.512253,126.244736 217.477036,126.846199 220.392212,126.662117 
	C221.547699,126.589142 222.593048,124.771828 224.162628,123.315659 
	C227.031952,120.477951 229.909515,118.386589 231.718719,115.601273 
	C235.136902,110.338898 237.940811,104.677505 240.999985,99.181938 
	C257.967010,92.351555 271.700745,102.421989 277.693756,126.284027 
	C281.218109,126.284027 284.808289,126.284027 288.891937,126.284027 
	C288.891937,123.663689 288.545074,121.001480 288.985748,118.476723 
	C289.463318,115.740555 289.928589,112.411034 291.690521,110.588745 
	C301.242065,100.709961 320.185608,101.874321 328.826660,112.511833 
	C337.916931,123.702415 334.641052,139.278473 320.864563,147.834824 
	C317.175873,149.211563 314.081512,150.297440 310.951660,151.395767 
	C310.951660,163.639923 310.951660,175.758759 310.501740,188.006638 
	C271.543488,188.127594 233.035156,188.124268 194.526840,188.093079 
	C193.052460,188.091873 191.578308,187.821854 190.104050,187.677094 
	C190.104050,175.417740 190.104050,163.158386 190.104050,150.522385 
	C176.429169,149.934128 168.276505,143.148788 166.366638,129.315308 
	C167.583237,127.532722 168.517197,126.276711 169.193314,124.894577 
	C171.054565,121.089691 172.775711,117.216492 174.616180,113.401138 
	C175.670273,111.215935 176.848801,109.090744 177.971313,106.938538 
M244.876648,163.897690 
	C248.240570,163.722458 251.604507,163.547226 255.495178,163.569687 
	C255.992294,163.368454 256.489410,163.167221 257.746857,163.034470 
	C260.840118,161.762604 263.933411,160.490723 267.733612,159.117050 
	C270.970184,156.561844 274.359619,154.175613 277.410706,151.415375 
	C283.316559,146.072540 283.223969,145.655991 277.295654,140.681076 
	C276.411560,139.939148 275.754028,138.866562 274.781586,138.322403 
	C274.424530,138.122604 273.458862,139.010452 272.213135,139.826752 
	C268.778809,142.633698 265.687653,146.126404 261.817780,148.062988 
	C257.585846,150.180771 252.633911,150.859741 247.188614,152.026031 
	C236.941711,151.498215 230.762863,144.716583 224.892700,137.118683 
	C223.489609,138.874573 222.474869,140.605667 221.038712,141.850571 
	C217.504593,144.914001 218.365097,147.807480 221.035721,150.738815 
	C221.912292,151.700928 222.967072,152.500687 224.062469,153.824921 
	C224.062469,153.824921 224.472382,154.047684 224.832214,154.662445 
	C230.263321,159.697403 236.502045,162.998810 244.876648,163.897690 
z"/>
<path fill="#232F33" opacity="1.000000" stroke="none" 
	d="
M190.086884,188.076385 
	C191.578308,187.821854 193.052460,188.091873 194.526840,188.093079 
	C233.035156,188.124268 271.543488,188.127594 310.509735,188.396683 
	C310.979248,189.438004 310.990845,190.218323 311.002441,190.998657 
	C305.576935,192.545883 300.141022,193.659027 294.924438,196.348755 
	C291.916199,197.899872 286.865295,196.502548 283.079559,195.322784 
	C275.053711,192.821686 267.561737,192.468521 259.194763,194.917862 
	C253.777130,196.503784 247.358170,197.409286 241.113434,193.357910 
	C237.515656,191.023804 231.523987,191.838165 226.660080,192.115616 
	C217.916000,192.614410 209.197327,193.671082 200.492706,194.702850 
	C195.891708,195.248230 190.362488,192.149933 190.086884,188.076385 
z"/>
<path fill="#273234" opacity="1.000000" stroke="none" 
	d="
M311.306915,191.130905 
	C310.990845,190.218323 310.979248,189.438004 310.959656,188.267624 
	C310.951660,175.758759 310.951660,163.639923 310.951660,151.395767 
	C314.081512,150.297440 317.175873,149.211563 320.640930,148.086639 
	C320.759979,150.662979 320.476044,153.275879 320.273468,155.895096 
	C320.198578,156.863388 319.913055,158.185928 320.406464,158.770264 
	C325.336243,164.608398 322.507538,171.463654 322.830475,177.815552 
	C323.075165,182.628235 315.267090,191.181931 311.306915,191.130905 
z"/>
<path fill="#EAEEEE" opacity="1.000000" stroke="none" 
	d="
M240.648178,99.183174 
	C237.940811,104.677505 235.136902,110.338898 231.718719,115.601273 
	C229.909515,118.386589 227.031952,120.477951 224.293732,122.943588 
	C223.505051,112.128250 228.790314,104.426132 240.648178,99.183174 
z"/>
<path fill="#E5EAE9" opacity="1.000000" stroke="none" 
	d="
M177.625534,106.976433 
	C176.848801,109.090744 175.670273,111.215935 174.616180,113.401138 
	C172.775711,117.216492 171.054565,121.089691 169.193314,124.894577 
	C168.517197,126.276711 167.583237,127.532722 166.419708,128.928970 
	C164.414642,118.931267 169.012604,112.038101 177.625534,106.976433 
z"/>
<path fill="#F5F5EA" opacity="1.000000" stroke="none" 
	d="
M313.933289,355.836945 
	C313.386932,356.020630 312.840576,356.204285 312.128601,356.630676 
	C306.396362,357.581909 300.834290,358.859619 295.262421,358.903778 
	C265.817932,359.137054 236.370941,359.059692 206.461761,359.167725 
	C204.608139,359.181244 203.217590,359.117096 201.413879,359.121582 
	C188.694992,358.485687 180.031372,352.395416 174.439957,341.169678 
	C173.817566,335.668182 173.149811,330.394440 173.118668,325.116943 
	C172.972824,300.387665 173.002213,275.657318 172.975464,250.101074 
	C173.112000,248.525162 173.242081,247.775528 173.692017,246.936646 
	C175.286255,244.981293 176.149399,242.237167 177.911285,241.411942 
	C183.434937,238.824799 183.684036,233.284454 185.944183,228.867050 
	C185.944183,228.867050 186.005859,228.429443 185.984146,228.209534 
	C186.710159,227.563232 187.457901,227.136841 188.747787,226.930786 
	C190.194168,227.428360 191.098404,227.705582 192.153046,228.301422 
	C193.369781,231.393021 195.123581,232.280106 198.091721,231.263641 
	C200.228348,230.531906 202.581711,230.059036 204.826691,230.100723 
	C208.708420,230.172836 210.610870,228.422913 211.035812,224.730118 
	C211.776337,224.636673 212.516846,224.543228 213.683395,224.931366 
	C217.073273,225.606979 220.037109,225.801010 223.469559,225.995880 
	C235.624619,225.999130 247.311096,226.001541 258.998474,226.420166 
	C259.221680,233.541916 259.997620,232.661835 266.656647,233.459778 
	C275.320770,234.498001 283.443848,227.734818 292.001923,232.501984 
	C292.122528,232.569168 292.374481,232.550659 292.483734,232.466492 
	C296.962433,229.015503 300.698730,232.791061 304.575378,233.910965 
	C310.225739,235.543289 314.423126,233.276596 315.458801,227.675583 
	C316.504089,228.203156 317.246735,228.616226 317.989410,229.029282 
	C319.478882,230.585083 320.968384,232.140869 322.830170,234.183960 
	C324.978790,240.285965 328.169373,245.870468 328.290070,251.520554 
	C328.855042,277.970459 328.554108,304.438446 328.610565,330.899902 
	C328.624237,337.301788 326.977905,343.164795 322.694550,347.939697 
	C320.083862,350.850006 316.874023,353.222778 313.933289,355.836945 
M293.809265,285.783844 
	C293.809265,285.783844 293.723938,285.771057 294.647095,285.882629 
	C299.902679,286.307251 305.022186,286.411316 308.045013,280.847565 
	C310.632599,276.084900 308.125641,267.744537 302.446869,263.550201 
	C296.773010,250.972794 287.386230,249.893021 279.046417,251.863663 
	C272.445099,253.423477 267.086060,261.762573 267.002869,268.554810 
	C266.896759,277.220276 270.558716,283.669739 278.241180,286.087097 
	C282.181213,287.326843 286.709167,286.698059 291.431732,287.351898 
	C292.217255,286.801300 293.002808,286.250732 293.809265,285.783844 
M278.440247,313.936615 
	C277.366913,313.574524 276.294464,312.900330 275.220093,312.897217 
	C259.086304,312.850616 242.951691,312.825012 226.818649,312.959015 
	C222.573242,312.994263 220.661179,316.029663 220.357315,319.807312 
	C220.043533,323.708252 223.498108,327.161774 227.427765,327.168427 
	C242.730408,327.194366 258.033386,327.161041 273.335693,327.059631 
	C274.906830,327.049225 276.473999,326.435730 278.759003,325.865997 
	C281.744415,322.184021 282.891602,318.481720 278.440247,313.936615 
M204.876968,254.977371 
	C194.882950,263.626434 196.794876,276.640930 204.666565,283.296844 
	C210.074051,287.869171 216.100906,287.934296 223.415695,286.915924 
	C226.539673,287.273163 229.662674,287.909088 232.787888,287.920166 
	C237.121048,287.935577 241.568268,283.389648 240.793594,279.569031 
	C239.401962,272.705719 237.810654,265.853882 235.733734,259.174225 
	C235.009949,256.846466 232.909348,254.657837 230.909958,253.069992 
	C224.968491,248.351456 218.265732,247.194702 210.725571,248.789536 
	C207.142715,249.547333 205.323227,250.823349 204.876968,254.977371 
z"/>
<path fill="#2F3A3C" opacity="1.000000" stroke="none" 
	d="
M314.214355,356.095581 
	C316.874023,353.222778 320.083862,350.850006 322.694550,347.939697 
	C326.977905,343.164795 328.624237,337.301788 328.610565,330.899902 
	C328.554108,304.438446 328.855042,277.970459 328.290070,251.520554 
	C328.169373,245.870468 324.978790,240.285965 323.122070,234.326950 
	C325.206696,233.056305 326.568512,232.343002 327.577850,235.897385 
	C328.713715,239.897263 331.647491,243.358551 333.501892,247.197739 
	C334.144226,248.527603 334.614655,250.770035 333.940247,251.773254 
	C329.169891,258.869385 331.909943,266.201263 332.934296,273.440399 
	C333.720367,278.995819 335.069946,284.471497 335.855133,290.027008 
	C336.235199,292.716217 336.471375,295.354462 333.328094,297.442810 
	C331.785400,298.467743 330.706604,301.971069 331.172028,303.937622 
	C333.488281,313.724792 330.430389,323.373962 331.000000,333.535828 
	C329.789246,338.780548 328.608734,343.569031 327.355225,348.338379 
	C326.713654,350.779388 326.550537,354.719421 325.103485,355.294281 
	C321.928223,356.555664 318.072998,356.105530 314.214355,356.095581 
z"/>
<path fill="#F1F2EA" opacity="1.000000" stroke="none" 
	d="
M353.568726,258.984436 
	C354.753113,258.892761 355.504395,258.951141 356.635376,259.002289 
	C357.015045,272.032410 357.015045,285.069763 357.015045,298.195221 
	C353.247009,298.195221 349.501404,298.195221 345.301544,297.660706 
	C344.745880,294.412323 344.644440,291.698425 344.543030,288.984558 
	C344.542999,279.251740 344.542999,269.518921 344.542999,259.587799 
	C347.903015,259.410522 350.519318,259.272522 353.568726,258.984436 
z"/>
<path fill="#EFEFE5" opacity="1.000000" stroke="none" 
	d="
M315.156158,227.561066 
	C314.423126,233.276596 310.225739,235.543289 304.575378,233.910965 
	C300.698730,232.791061 296.962433,229.015503 292.483734,232.466492 
	C292.374481,232.550659 292.122528,232.569168 292.001923,232.501984 
	C283.443848,227.734818 275.320770,234.498001 266.656647,233.459778 
	C259.997620,232.661835 259.221680,233.541916 259.173462,226.317398 
	C259.574554,225.472458 259.801575,225.146500 260.028625,224.820541 
	C262.396362,224.714493 264.764069,224.608429 267.773254,224.904510 
	C271.282806,225.135101 274.150909,224.963531 277.019043,224.791977 
	C283.707428,224.693802 290.395782,224.595642 297.752747,224.904266 
	C301.289825,225.181534 304.158386,225.052032 307.026917,224.922516 
	C308.594147,225.012802 310.161407,225.103104 312.305817,225.418320 
	C313.640717,226.282516 314.398438,226.921783 315.156158,227.561066 
z"/>
<path fill="#EFEFE5" opacity="1.000000" stroke="none" 
	d="
M210.609253,224.579956 
	C210.610870,228.422913 208.708420,230.172836 204.826691,230.100723 
	C202.581711,230.059036 200.228348,230.531906 198.091721,231.263641 
	C195.123581,232.280106 193.369781,231.393021 192.276077,228.034149 
	C192.501816,226.710022 192.754944,225.971817 193.008072,225.233597 
	C193.759583,225.113953 194.511093,224.994324 195.919098,225.175613 
	C198.724899,225.241852 200.874191,225.007187 203.023483,224.772507 
	C205.409882,224.658279 207.796295,224.544052 210.609253,224.579956 
z"/>
<path fill="#E4E8E7" opacity="1.000000" stroke="none" 
	d="
M259.577911,224.680054 
	C259.801575,225.146500 259.574554,225.472458 259.172546,225.901184 
	C247.311096,226.001541 235.624619,225.999130 223.466553,225.785522 
	C222.980148,225.293655 222.982941,225.013168 223.003342,224.732880 
	C235.044632,224.668442 247.085907,224.603989 259.577911,224.680054 
z"/>
<path fill="#2F3A3C" opacity="1.000000" stroke="none" 
	d="
M344.182617,289.016968 
	C344.644440,291.698425 344.745880,294.412323 344.870087,297.579620 
	C343.608154,296.861542 341.268616,295.678955 341.280823,294.521088 
	C341.300110,292.688507 342.894379,290.872467 344.182617,289.016968 
z"/>
<path fill="#2F3A3C" opacity="1.000000" stroke="none" 
	d="
M339.905884,245.672974 
	C340.657349,246.124924 341.463654,246.609482 341.448975,247.067795 
	C341.393127,248.815231 341.072540,250.554230 340.850861,252.296371 
	C339.831299,252.163055 337.951538,252.110855 337.930084,251.883392 
	C337.777435,250.264511 337.899292,248.591934 338.173767,246.977234 
	C338.257660,246.483719 339.092651,246.117859 339.905884,245.672974 
z"/>
<path fill="#EFEFE5" opacity="1.000000" stroke="none" 
	d="
M222.568665,224.594208 
	C222.982941,225.013168 222.980148,225.293655 222.997955,225.784668 
	C220.037109,225.801010 217.073273,225.606979 214.036026,225.072021 
	C216.686417,224.639236 219.410202,224.547379 222.568665,224.594208 
z"/>
<path fill="#2F3A3C" opacity="1.000000" stroke="none" 
	d="
M344.062592,311.471832 
	C343.757599,312.301392 343.427246,312.837677 343.038849,313.686401 
	C341.560242,314.292572 340.139679,314.586304 338.359558,314.940002 
	C337.322815,310.747498 341.414856,311.578674 343.642578,310.019653 
	C344.012421,310.391235 344.024841,310.784882 344.062592,311.471832 
z"/>
<path fill="#E4E8E7" opacity="1.000000" stroke="none" 
	d="
M306.666199,224.753983 
	C304.158386,225.052032 301.289825,225.181534 298.200012,225.044037 
	C300.754303,224.713165 303.529907,224.649307 306.666199,224.753983 
z"/>
<path fill="#E4E8E7" opacity="1.000000" stroke="none" 
	d="
M276.583496,224.656830 
	C274.150909,224.963531 271.282806,225.135101 268.198578,225.041840 
	C270.704285,224.691910 273.426117,224.606812 276.583496,224.656830 
z"/>
<path fill="#E4E8E7" opacity="1.000000" stroke="none" 
	d="
M202.638214,224.639832 
	C200.874191,225.007187 198.724899,225.241852 196.294632,225.252808 
	C198.093414,224.855103 200.173187,224.681122 202.638214,224.639832 
z"/>
<path fill="#2F3A3C" opacity="1.000000" stroke="none" 
	d="
M315.458801,227.675583 
	C314.398438,226.921783 313.640717,226.282516 312.699158,225.398193 
	C314.325073,226.192184 316.134796,227.231232 317.966980,228.649780 
	C317.246735,228.616226 316.504089,228.203156 315.458801,227.675583 
z"/>
<path fill="#E4E8E7" opacity="1.000000" stroke="none" 
	d="
M192.688080,225.186218 
	C192.754944,225.971817 192.501816,226.710022 192.125656,227.715515 
	C191.098404,227.705582 190.194168,227.428360 189.066711,226.865356 
	C190.018341,226.099319 191.193222,225.619080 192.688080,225.186218 
z"/>
<path fill="#2F3A3C" opacity="1.000000" stroke="none" 
	d="
M338.060425,317.328949 
	C338.961060,317.780426 339.920898,318.560852 340.940369,319.670044 
	C340.039886,319.218475 339.079773,318.438202 338.060425,317.328949 
z"/>
<path fill="#EFF2E9" opacity="1.000000" stroke="none" 
	d="
M143.854950,261.995178 
	C145.031265,261.182983 146.142151,259.818176 147.397003,259.669647 
	C150.331100,259.322296 153.334290,259.558655 156.654388,259.558655 
	C156.654388,272.636597 156.654388,285.354706 156.654388,298.524567 
	C152.738327,298.524567 148.706360,298.524567 144.052567,298.524567 
	C144.052567,287.366791 144.052567,276.142456 144.059631,264.133759 
	C143.996124,262.897980 143.925552,262.446594 143.854950,261.995178 
z"/>
<path fill="#E4E8E7" opacity="1.000000" stroke="none" 
	d="
M185.571869,228.873474 
	C183.684036,233.284454 183.434937,238.824799 177.911285,241.411942 
	C176.149399,242.237167 175.286255,244.981293 173.616394,246.564392 
	C173.225922,245.527786 173.230927,244.774216 173.235931,244.020645 
	C173.695724,242.657471 174.155518,241.294296 174.886871,239.353821 
	C177.770874,235.513947 180.383286,232.251389 182.995712,228.988831 
	C183.730331,228.952515 184.464951,228.916214 185.571869,228.873474 
z"/>
<path fill="#314145" opacity="1.000000" stroke="none" 
	d="
M182.848511,228.685837 
	C180.383286,232.251389 177.770874,235.513947 174.930618,238.994995 
	C173.177780,238.173035 171.652756,237.132614 170.237946,236.167358 
	C173.071243,232.985733 175.372849,230.302673 177.785629,227.723602 
	C179.643890,225.737244 181.406982,225.600922 182.848511,228.685837 
z"/>
<path fill="#314145" opacity="1.000000" stroke="none" 
	d="
M172.843628,244.041107 
	C173.230927,244.774216 173.225922,245.527786 173.296539,246.653625 
	C173.242081,247.775528 173.112000,248.525162 172.873764,249.642975 
	C169.043304,248.086624 168.958145,246.474564 172.843628,244.041107 
z"/>
<path fill="#303F43" opacity="1.000000" stroke="none" 
	d="
M143.605682,262.057434 
	C143.925552,262.446594 143.996124,262.897980 143.947998,263.677185 
	C143.671661,263.376526 143.514038,262.748138 143.605682,262.057434 
z"/>
<path fill="#F6F5EA" opacity="1.000000" stroke="none" 
	d="
M210.867004,401.370148 
	C210.844360,396.305847 210.937073,391.606079 210.911835,386.453064 
	C210.906494,384.722809 211.019089,383.445831 211.544617,381.763062 
	C213.297592,381.413116 214.637634,381.469025 215.984192,381.897339 
	C217.389725,383.503632 218.605789,385.400024 220.222260,385.846405 
	C224.959854,387.154633 229.848267,387.932129 234.694763,388.824188 
	C237.264862,389.297302 239.876907,389.925049 242.459122,389.878540 
	C250.323395,389.736908 258.183258,389.321045 266.042664,388.964569 
	C267.682495,388.890198 269.598633,389.102783 270.899597,388.345276 
	C277.282959,384.628571 283.806580,384.956879 290.505707,387.050110 
	C290.585846,387.489044 290.666016,387.928009 290.858673,388.683472 
	C290.893860,398.012085 290.816528,407.024200 290.426056,416.500854 
	C289.746521,417.203247 289.380127,417.441071 289.013733,417.678864 
	C263.349854,417.785431 237.685989,417.891998 211.505646,417.646484 
	C210.901337,416.862030 210.813477,416.429688 210.844452,415.549866 
	C210.893433,411.398956 210.823578,407.695526 210.753723,403.992065 
	C210.829926,403.239624 210.906128,402.487152 210.867004,401.370148 
z"/>
<path fill="#2D3A3D" opacity="1.000000" stroke="none" 
	d="
M210.385742,403.996277 
	C210.823578,407.695526 210.893433,411.398956 210.519592,415.562958 
	C209.052139,416.348602 208.028381,416.673706 207.004623,416.998810 
	C203.815292,409.437256 204.621918,405.957581 210.385742,403.996277 
z"/>
<path fill="#2F3A3C" opacity="1.000000" stroke="none" 
	d="
M207.023102,417.337952 
	C208.028381,416.673706 209.052139,416.348602 210.400757,416.010406 
	C210.813477,416.429688 210.901337,416.862030 211.043549,417.624481 
	C209.679871,418.826080 208.115952,421.829926 207.023102,417.337952 
z"/>
<path fill="#E4E4DB" opacity="1.000000" stroke="none" 
	d="
M289.286407,417.779266 
	C289.380127,417.441071 289.746521,417.203247 290.336670,416.958435 
	C290.226624,417.260834 289.892853,417.570251 289.286407,417.779266 
z"/>
<path fill="#E4E4DB" opacity="1.000000" stroke="none" 
	d="
M290.620087,386.643707 
	C283.806580,384.956879 277.282959,384.628571 270.899597,388.345276 
	C269.598633,389.102783 267.682495,388.890198 266.042664,388.964569 
	C258.183258,389.321045 250.323395,389.736908 242.459122,389.878540 
	C239.876907,389.925049 237.264862,389.297302 234.694763,388.824188 
	C229.848267,387.932129 224.959854,387.154633 220.222260,385.846405 
	C218.605789,385.400024 217.389725,383.503632 216.448120,381.820618 
	C222.938614,381.209778 228.971695,381.048126 235.004761,380.886475 
	C236.072037,380.928802 237.139328,380.971161 239.061584,381.010864 
	C246.612183,380.979645 253.307800,380.950989 260.003418,380.922363 
	C261.719849,380.975006 263.436279,381.027649 266.036377,381.076324 
	C273.950439,380.977539 280.980865,380.882721 288.011261,380.787903 
	C292.430267,380.849701 290.327148,384.170746 290.620087,386.643707 
z"/>
<path fill="#374042" opacity="1.000000" stroke="none" 
	d="
M234.898026,380.552002 
	C228.971695,381.048126 222.938614,381.209778 216.441620,381.448181 
	C214.637634,381.469025 213.297592,381.413116 211.553543,381.376160 
	C212.519470,379.755463 213.640121,377.051483 215.302826,376.662079 
	C222.171646,375.053589 228.885025,375.815063 234.898026,380.552002 
z"/>
<path fill="#374042" opacity="1.000000" stroke="none" 
	d="
M288.008606,380.427399 
	C280.980865,380.882721 273.950439,380.977539 266.457825,380.987793 
	C267.309204,376.275818 271.140289,376.370911 274.738312,376.502167 
	C278.455048,376.637756 282.177521,377.089935 285.846130,377.708313 
	C286.675049,377.847992 287.291626,379.247375 288.008606,380.427399 
z"/>
<path fill="#374042" opacity="1.000000" stroke="none" 
	d="
M259.894348,380.589630 
	C253.307800,380.950989 246.612183,380.979645 239.454285,380.923004 
	C239.632477,375.977203 244.103622,378.335083 246.467468,377.514709 
	C250.845535,375.995239 255.989700,376.251984 259.894348,380.589630 
z"/>
<path fill="#2D3A3D" opacity="1.000000" stroke="none" 
	d="
M178.706650,360.278320 
	C178.823532,359.494537 179.149124,358.925385 179.474731,358.356201 
	C179.863190,358.754517 180.251663,359.152863 180.640137,359.551178 
	C180.065201,359.865082 179.490280,360.178986 178.706650,360.278320 
z"/>
<path fill="#2D3A3D" opacity="1.000000" stroke="none" 
	d="
M186.909378,359.559937 
	C186.376999,359.515686 186.002106,359.319885 185.627213,359.124054 
	C185.814468,358.917389 186.001724,358.710693 186.188980,358.503998 
	C186.481613,358.805450 186.774231,359.106903 186.909378,359.559937 
z"/>
<path fill="#2D3A3D" opacity="1.000000" stroke="none" 
	d="
M254.968430,163.371994 
	C251.604507,163.547226 248.240570,163.722458 244.397278,163.405975 
	C241.617569,161.327057 239.117477,159.961090 237.060806,158.104050 
	C233.410385,154.807938 229.716125,152.169891 224.472382,154.047684 
	C224.472382,154.047684 224.062469,153.824921 224.410355,153.445557 
	C228.616928,150.024414 232.391373,151.984467 236.342636,152.997726 
	C240.204254,153.987991 244.360870,155.738983 247.995789,152.165817 
	C252.633911,150.859741 257.585846,150.180771 261.817780,148.062988 
	C265.687653,146.126404 268.778809,142.633698 272.538208,139.991699 
	C273.552826,143.931152 273.873352,147.297318 270.662048,150.620132 
	C268.644562,152.707703 268.185120,156.301056 267.026672,159.218857 
	C263.933411,160.490723 260.840118,161.762604 257.217316,162.826172 
	C256.114655,162.869247 255.541550,163.120621 254.968430,163.371994 
z"/>
<path fill="#2E3739" opacity="1.000000" stroke="none" 
	d="
M247.592194,152.095917 
	C244.360870,155.738983 240.204254,153.987991 236.342636,152.997726 
	C232.391373,151.984467 228.616928,150.024414 224.349304,153.220428 
	C222.967072,152.500687 221.912292,151.700928 221.035721,150.738815 
	C218.365097,147.807480 217.504593,144.914001 221.038712,141.850571 
	C222.474869,140.605667 223.489609,138.874573 224.892700,137.118683 
	C230.762863,144.716583 236.941711,151.498215 247.592194,152.095917 
z"/>
<path fill="#364347" opacity="1.000000" stroke="none" 
	d="
M267.380127,159.167953 
	C268.185120,156.301056 268.644562,152.707703 270.662048,150.620132 
	C273.873352,147.297318 273.552826,143.931152 272.817047,139.779419 
	C273.458862,139.010452 274.424530,138.122604 274.781586,138.322403 
	C275.754028,138.866562 276.411560,139.939148 277.295654,140.681076 
	C283.223969,145.655991 283.316559,146.072540 277.410706,151.415375 
	C274.359619,154.175613 270.970184,156.561844 267.380127,159.167953 
z"/>
<path fill="#2E3739" opacity="1.000000" stroke="none" 
	d="
M224.652298,154.355072 
	C229.716125,152.169891 233.410385,154.807938 237.060806,158.104050 
	C239.117477,159.961090 241.617569,161.327057 243.959900,163.253784 
	C236.502045,162.998810 230.263321,159.697403 224.652298,154.355072 
z"/>
<path fill="#364347" opacity="1.000000" stroke="none" 
	d="
M255.231812,163.470840 
	C255.541550,163.120621 256.114655,162.869247 256.837158,162.791946 
	C256.489410,163.167221 255.992294,163.368454 255.231812,163.470840 
z"/>
<path fill="#2D373A" opacity="1.000000" stroke="none" 
	d="
M222.491653,286.851715 
	C216.100906,287.934296 210.074051,287.869171 204.666565,283.296844 
	C196.794876,276.640930 194.882950,263.626434 205.357147,254.555237 
	C218.903961,246.250717 234.436600,256.263641 234.188950,268.065857 
	C231.933090,272.810791 229.988876,277.458008 227.914673,282.410767 
	C226.020355,284.094818 224.256012,285.473267 222.491653,286.851715 
M228.504211,273.469055 
	C228.504211,273.469055 228.522202,273.513794 228.504211,273.469055 
z"/>
<path fill="#2C3739" opacity="1.000000" stroke="none" 
	d="
M290.971436,286.913696 
	C286.709167,286.698059 282.181213,287.326843 278.241180,286.087097 
	C270.558716,283.669739 266.896759,277.220276 267.002869,268.554810 
	C267.086060,261.762573 272.445099,253.423477 279.046417,251.863663 
	C287.386230,249.893021 296.773010,250.972794 302.683868,264.183350 
	C302.899353,265.874847 302.877838,266.933228 302.555145,267.913269 
	C300.500122,266.553955 298.104340,265.611115 297.736938,268.464417 
	C297.212311,272.538696 297.831390,276.760284 297.883728,281.241547 
	C296.444946,282.966461 295.084442,284.368774 293.723938,285.771057 
	C293.723938,285.771057 293.809265,285.783844 293.488159,285.795898 
	C292.435211,286.176544 291.703339,286.545135 290.971436,286.913696 
z"/>
<path fill="#293639" opacity="1.000000" stroke="none" 
	d="
M278.042999,326.102081 
	C276.473999,326.435730 274.906830,327.049225 273.335693,327.059631 
	C258.033386,327.161041 242.730408,327.194366 227.427765,327.168427 
	C223.498108,327.161774 220.043533,323.708252 220.357315,319.807312 
	C220.661179,316.029663 222.573242,312.994263 226.818649,312.959015 
	C242.951691,312.825012 259.086304,312.850616 275.220093,312.897217 
	C276.294464,312.900330 277.366913,313.574524 278.274628,314.381775 
	C277.307800,315.416901 275.750366,316.137726 275.826202,316.575897 
	C276.381256,319.783112 277.263794,322.933655 278.042999,326.102081 
z"/>
<path fill="#F2F5F2" opacity="1.000000" stroke="none" 
	d="
M234.500580,267.968170 
	C234.436600,256.263641 218.903961,246.250717 205.483063,254.255371 
	C205.323227,250.823349 207.142715,249.547333 210.725571,248.789536 
	C218.265732,247.194702 224.968491,248.351456 230.909958,253.069992 
	C232.909348,254.657837 235.009949,256.846466 235.733734,259.174225 
	C237.810654,265.853882 239.401962,272.705719 240.793594,279.569031 
	C241.568268,283.389648 237.121048,287.935577 232.787888,287.920166 
	C229.662674,287.909088 226.539673,287.273163 222.953674,286.883820 
	C224.256012,285.473267 226.020355,284.094818 228.235779,282.264038 
	C233.255630,278.302094 234.317413,273.319611 234.500580,267.968170 
z"/>
<path fill="#F1F3F2" opacity="1.000000" stroke="none" 
	d="
M294.185516,285.826843 
	C295.084442,284.368774 296.444946,282.966461 298.209259,281.116333 
	C300.027496,276.442871 301.441925,272.217224 302.856323,267.991608 
	C302.877838,266.933228 302.899353,265.874847 302.932190,264.417847 
	C308.125641,267.744537 310.632599,276.084900 308.045013,280.847565 
	C305.022186,286.411316 299.902679,286.307251 294.185516,285.826843 
z"/>
<path fill="#364246" opacity="1.000000" stroke="none" 
	d="
M278.401001,325.984039 
	C277.263794,322.933655 276.381256,319.783112 275.826202,316.575897 
	C275.750366,316.137726 277.307800,315.416901 278.495605,314.774658 
	C282.891602,318.481720 281.744415,322.184021 278.401001,325.984039 
z"/>
<path fill="#F1F3F2" opacity="1.000000" stroke="none" 
	d="
M291.201599,287.132812 
	C291.703339,286.545135 292.435211,286.176544 293.477722,285.754028 
	C293.002808,286.250732 292.217255,286.801300 291.201599,287.132812 
z"/>
<path fill="#374245" opacity="1.000000" stroke="none" 
	d="
M234.188950,268.065857 
	C234.317413,273.319611 233.255630,278.302094 228.365753,281.958496 
	C229.988876,277.458008 231.933090,272.810791 234.188950,268.065857 
z"/>
<path fill="#374245" opacity="1.000000" stroke="none" 
	d="
M228.513214,273.491425 
	C228.522202,273.513794 228.504211,273.469055 228.513214,273.491425 
z"/>
<path fill="#344145" opacity="1.000000" stroke="none" 
	d="
M302.555145,267.913269 
	C301.441925,272.217224 300.027496,276.442871 298.287537,280.793701 
	C297.831390,276.760284 297.212311,272.538696 297.736938,268.464417 
	C298.104340,265.611115 300.500122,266.553955 302.555145,267.913269 
z"/>
</svg>